<svg width="46" height="30" viewBox="0 0 46 30" fill="none" xmlns="http://www.w3.org/2000/svg">
<path d="M1.935 3.215L20.685 13.2875C21.315 13.625 22.13 13.785 22.95 13.785C23.77 13.785 24.585 13.625 25.215 13.2875L43.965 3.215C45.1875 2.5575 46.3425 0 44.1 0H1.8025C-0.439996 0 0.715004 2.5575 1.935 3.215ZM44.5325 8.7225L25.215 18.79C24.365 19.235 23.77 19.2875 22.95 19.2875C22.13 19.2875 21.535 19.235 20.685 18.79C19.835 18.345 2.8525 9.4425 1.465 8.72C0.490004 8.21 0.500004 8.8075 0.500004 9.2675V27.5C0.500004 28.55 1.915 30 3 30H43C44.085 30 45.5 28.55 45.5 27.5V9.27C45.5 8.81 45.51 8.2125 44.5325 8.7225Z" fill="#FFAA18"/>
</svg>
