<svg width="36" height="21" viewBox="0 0 36 21" fill="none" xmlns="http://www.w3.org/2000/svg">
<path d="M34.2003 0.164968C34.047 0.152774 33.8924 0.152774 33.7391 0.164968H2.23883C2.03694 0.167368 1.83639 0.190728 1.64258 0.234419L17.8989 12.727L34.2003 0.164968Z" fill="#FFAA18"/>
<path d="M35.865 1.37131L19.485 13.9594C19.0634 14.2828 18.4932 14.4643 17.8988 14.4643C17.3043 14.4643 16.7341 14.2828 16.3125 13.9594L0.0787501 1.4668C0.0288444 1.60835 0.00238352 1.7542 0 1.90087V19.2637C0 19.7242 0.237053 20.1658 0.65901 20.4915C1.08097 20.8171 1.65326 21 2.25 21H33.75C34.3467 21 34.919 20.8171 35.341 20.4915C35.7629 20.1658 36 19.7242 36 19.2637V1.90087C35.991 1.72 35.9455 1.54132 35.865 1.37131ZM3.79125 19.2637H2.2275V18.0223L10.4062 11.763L11.9925 12.9871L3.79125 19.2637ZM33.7275 19.2637H32.1525L23.9512 12.9871L25.5375 11.763L33.7162 18.0223L33.7275 19.2637Z" fill="#FFAA18"/>
</svg>
