<svg width="50" height="50" viewBox="0 0 50 50" fill="none" xmlns="http://www.w3.org/2000/svg">
<path d="M22.9999 30.2379L19.5449 34.4429C19.4314 34.5802 19.3522 34.7425 19.3136 34.9164C19.275 35.0903 19.2781 35.2709 19.3227 35.4433C19.3674 35.6158 19.4522 35.7752 19.5704 35.9086C19.6885 36.0419 19.8365 36.1453 20.0024 36.2104L23.3799 37.5379C23.5485 37.6043 23.7307 37.629 23.911 37.61C24.0912 37.591 24.2643 37.5288 24.4154 37.4287C24.5665 37.3286 24.6912 37.1936 24.7791 37.035C24.8669 36.8765 24.9152 36.6991 24.9199 36.5179L25.0674 31.0104C25.0741 30.767 25.0046 30.5275 24.8686 30.3256C24.7325 30.1236 24.5367 29.9693 24.3085 29.8842C24.0804 29.799 23.8313 29.7873 23.5962 29.8508C23.3611 29.9142 23.1517 30.0495 22.9974 30.2379H22.9999ZM22.4249 26.0579L17.2999 24.2179C17.1326 24.1579 16.9534 24.1383 16.7771 24.1607C16.6008 24.1831 16.4323 24.2469 16.2853 24.3468C16.1383 24.4467 16.0171 24.58 15.9314 24.7357C15.8457 24.8914 15.7981 25.0652 15.7924 25.2429L15.6774 28.8704C15.6524 29.6529 16.4124 30.2204 17.1549 29.9779L22.3924 28.2654C22.6233 28.1896 22.8249 28.0437 22.9689 27.8479C23.113 27.6521 23.1923 27.4162 23.1959 27.1732C23.1995 26.9302 23.1271 26.6921 22.9889 26.4921C22.8507 26.2922 22.6535 26.1404 22.4249 26.0579V26.0579ZM28.2949 26.6479L33.5424 25.2004C33.714 25.1532 33.8719 25.0661 34.0034 24.9461C34.1348 24.8262 34.236 24.6768 34.2987 24.5103C34.3614 24.3438 34.3837 24.1648 34.3639 23.9879C34.3442 23.8111 34.2828 23.6414 34.1849 23.4929L32.1924 20.4603C32.0928 20.3083 31.958 20.1825 31.7993 20.0938C31.6406 20.0051 31.4628 19.9561 31.2811 19.951C31.0994 19.9458 30.9191 19.9846 30.7557 20.0642C30.5922 20.1438 30.4505 20.2617 30.3424 20.4078L27.0499 24.8254C26.905 25.0203 26.8246 25.2556 26.8197 25.4985C26.8149 25.7414 26.886 25.9797 27.023 26.1803C27.16 26.3808 27.3562 26.5337 27.5841 26.6175C27.8121 26.7013 28.0606 26.7119 28.2949 26.6479V26.6479ZM24.4949 14.0403C24.5048 13.8294 24.4646 13.6192 24.3776 13.4268C24.2907 13.2344 24.1594 13.0653 23.9946 12.9334C23.8297 12.8015 23.636 12.7104 23.4292 12.6677C23.2224 12.6251 23.0085 12.6319 22.8049 12.6878L18.6524 13.8203C18.4445 13.8768 18.2534 13.9826 18.0952 14.1288C17.9371 14.2749 17.8165 14.4571 17.7439 14.6599C17.6712 14.8626 17.6486 15.0799 17.6779 15.2932C17.7073 15.5066 17.7877 15.7097 17.9124 15.8853L22.6749 24.1404C22.7131 24.2084 22.7574 24.2729 22.8074 24.3329C22.9666 24.5164 23.1713 24.655 23.4009 24.7346C23.6305 24.8143 23.877 24.8322 24.1157 24.7866C24.3544 24.7411 24.577 24.6336 24.7611 24.475C24.9452 24.3164 25.0845 24.1122 25.1649 23.8829C25.2211 23.7079 25.2415 23.5234 25.2249 23.3404L24.4924 14.0403H24.4949ZM33.5774 30.4204L28.3099 28.8029C28.0771 28.7307 27.8276 28.7333 27.5963 28.8101C27.365 28.887 27.1635 29.0343 27.0202 29.2314C26.8769 29.4285 26.7988 29.6655 26.7969 29.9092C26.7951 30.1529 26.8696 30.3911 27.0099 30.5904L30.1349 35.0454C30.5774 35.6704 31.4999 35.6879 31.9599 35.0754L34.1474 32.1804C34.2572 32.0356 34.3304 31.8665 34.3607 31.6874C34.3911 31.5083 34.3777 31.3245 34.3217 31.1516C34.2658 30.9788 34.1688 30.822 34.0393 30.6947C33.9097 30.5674 33.7512 30.4733 33.5774 30.4204V30.4204Z" fill="#FFAA18"/>
<path d="M25 45C30.3043 45 35.3914 42.8929 39.1421 39.1421C42.8929 35.3914 45 30.3043 45 25C45 19.6957 42.8929 14.6086 39.1421 10.8579C35.3914 7.10714 30.3043 5 25 5C19.6957 5 14.6086 7.10714 10.8579 10.8579C7.10714 14.6086 5 19.6957 5 25C5 30.3043 7.10714 35.3914 10.8579 39.1421C14.6086 42.8929 19.6957 45 25 45V45ZM25 50C11.1925 50 0 38.8075 0 25C0 11.1925 11.1925 0 25 0C38.8075 0 50 11.1925 50 25C50 38.8075 38.8075 50 25 50Z" fill="#FFAA18"/>
</svg>
