<svg width="49" height="50" viewBox="0 0 49 50" fill="none" xmlns="http://www.w3.org/2000/svg">
<path d="M24.5 0C10.9703 0 0 11.1073 0 24.8059C0 38.5045 10.9703 49.6118 24.5 49.6118C38.0297 49.6118 49 38.5045 49 24.8059C49 11.1073 38.0297 0 24.5 0ZM36.2742 18.6986C36.2906 18.9588 36.2906 19.2301 36.2906 19.4959C36.2906 27.6243 30.1766 36.9874 19.0039 36.9874C15.5586 36.9874 12.3648 35.9741 9.67422 34.2299C10.1664 34.2853 10.6367 34.3075 11.1398 34.3075C13.9836 34.3075 16.5977 33.3329 18.6812 31.6829C16.0125 31.6275 13.7703 29.8557 13.0047 27.4194C13.9398 27.5578 14.782 27.5578 15.7445 27.3086C14.3704 27.026 13.1353 26.2704 12.249 25.1702C11.3627 24.0699 10.88 22.693 10.8828 21.2733V21.1958C11.6867 21.6553 12.6328 21.9377 13.6227 21.9765C12.7905 21.415 12.1081 20.6543 11.6359 19.7618C11.1637 18.8694 10.9163 17.8727 10.9156 16.8603C10.9156 15.7141 11.2109 14.6676 11.7414 13.7595C13.2667 15.6606 15.1699 17.2154 17.3275 18.323C19.4851 19.4305 21.8488 20.066 24.2648 20.188C23.4062 16.0076 26.4906 12.6244 30.1984 12.6244C31.9484 12.6244 33.5234 13.3664 34.6336 14.5624C36.0062 14.3022 37.3187 13.7817 38.4891 13.084C38.0352 14.507 37.0836 15.7086 35.8203 16.4671C37.0453 16.3342 38.2266 15.991 39.3203 15.5092C38.4945 16.7385 37.4609 17.8292 36.2742 18.6986Z" fill="#FFAA18"/>
</svg>
