<svg width="36" height="36" viewBox="0 0 36 36" fill="none" xmlns="http://www.w3.org/2000/svg">
<path fill-rule="evenodd" clip-rule="evenodd" d="M18 1.5C8.8875 1.5 1.5 8.8875 1.5 18C1.5 27.1125 8.8875 34.5 18 34.5C27.1125 34.5 34.5 27.1125 34.5 18C34.5 8.8875 27.1125 1.5 18 1.5ZM14.6895 13.0605C14.4163 12.7776 14.2651 12.3987 14.2685 12.0054C14.2719 11.6121 14.4297 11.2359 14.7078 10.9578C14.9859 10.6797 15.3621 10.5219 15.7554 10.5185C16.1487 10.5151 16.5276 10.6663 16.8105 10.9395L22.8105 16.9395C23.0917 17.2208 23.2497 17.6023 23.2497 18C23.2497 18.3977 23.0917 18.7792 22.8105 19.0605L16.8105 25.0605C16.5276 25.3337 16.1487 25.4849 15.7554 25.4815C15.3621 25.4781 14.9859 25.3203 14.7078 25.0422C14.4297 24.7641 14.2719 24.3879 14.2685 23.9946C14.2651 23.6013 14.4163 23.2224 14.6895 22.9395L19.629 18L14.6895 13.0605Z" fill="#222429"/>
</svg>
