<svg width="34" height="34" viewBox="0 0 34 34" fill="none" xmlns="http://www.w3.org/2000/svg">
<path fill-rule="evenodd" clip-rule="evenodd" d="M17 0.5C7.8875 0.5 0.5 7.8875 0.5 17C0.5 26.1125 7.8875 33.5 17 33.5C26.1125 33.5 33.5 26.1125 33.5 17C33.5 7.8875 26.1125 0.5 17 0.5ZM13.6895 12.0605C13.4163 11.7776 13.2651 11.3987 13.2685 11.0054C13.2719 10.6121 13.4297 10.2359 13.7078 9.95777C13.9859 9.67966 14.3621 9.52191 14.7554 9.51849C15.1487 9.51507 15.5276 9.66626 15.8105 9.9395L21.8105 15.9395C22.0917 16.2208 22.2497 16.6023 22.2497 17C22.2497 17.3977 22.0917 17.7792 21.8105 18.0605L15.8105 24.0605C15.5276 24.3337 15.1487 24.4849 14.7554 24.4815C14.3621 24.4781 13.9859 24.3203 13.7078 24.0422C13.4297 23.7641 13.2719 23.3879 13.2685 22.9946C13.2651 22.6013 13.4163 22.2224 13.6895 21.9395L18.629 17L13.6895 12.0605Z" fill="#222429"/>
</svg>
