<svg width="50" height="50" viewBox="0 0 50 50" fill="none" xmlns="http://www.w3.org/2000/svg">
<path d="M50 16.25C50 19.675 47.2 22.5 43.75 22.5C40.3 22.5 37.5 19.675 37.5 16.25C37.5 19.675 34.7 22.5 31.25 22.5C27.8 22.5 25 19.675 25 16.25C25 19.675 22.2 22.5 18.75 22.5C15.3 22.5 12.5 19.675 12.5 16.25C12.5 19.675 9.7 22.5 6.25 22.5C2.8 22.5 0 19.675 0 16.25L3.475 2.7C3.475 2.7 4.2 0 6.75 0H43.25C45.8 0 46.525 2.7 46.525 2.7L50 16.25ZM47.5 25.5V45C47.5 47.75 45.25 50 42.5 50H7.5C4.75 50 2.5 47.75 2.5 45V25.5C4.14344 26.1786 5.9393 26.402 7.69892 26.1469C9.45854 25.8917 11.117 25.1674 12.5 24.05C14.225 25.425 16.4 26.25 18.75 26.25C21.125 26.25 23.3 25.425 25 24.05C26.725 25.425 28.9 26.25 31.25 26.25C33.625 26.25 35.8 25.425 37.5 24.05C39.2 25.425 41.4 26.25 43.75 26.25C45.075 26.25 46.35 25.975 47.5 25.5ZM42.5 38.325C42.5 37.825 42.5 37.3 42.375 36.75L42.3 36.35H34.875V39.275H39.4C39.25 39.825 39.05 40.375 38.625 40.825C37.8 41.65 36.675 42.1 35.475 42.1C34.225 42.1 33 41.575 32.1 40.7C30.375 38.925 30.375 36.05 32.15 34.25C33.875 32.5 36.725 32.5 38.525 34.175L38.875 34.5L40.975 32.375L40.575 32.025C39.175 30.725 37.325 30 35.375 30H35.35C33.325 30 31.425 30.775 30 32.175C28.525 33.625 27.7 35.525 27.7 37.5C27.7 39.5 28.475 41.35 29.9 42.725C31.3849 44.1744 33.375 44.9902 35.45 45H35.5C37.5 45 39.275 44.275 40.575 43C41.75 41.8 42.5 40 42.5 38.325Z" fill="#FFAA18"/>
</svg>
