<svg width="45" height="48" viewBox="0 0 45 48" fill="none" xmlns="http://www.w3.org/2000/svg">
<path d="M44.4948 14.4544C44.47 12.4978 44.1214 10.5607 43.4647 8.72968C42.8952 7.18524 42.0255 5.78261 40.9109 4.61141C39.7964 3.44021 38.4616 2.5262 36.9919 1.92777C35.2719 1.24927 33.4548 0.882399 31.618 0.842767C29.2531 0.731684 28.5033 0.700684 22.5001 0.700684C16.4968 0.700684 15.7273 0.700684 13.3796 0.842767C11.5436 0.88269 9.72741 1.24956 8.00818 1.92777C6.53824 2.52578 5.20327 3.43965 4.08869 4.6109C2.97411 5.78215 2.10446 7.185 1.53538 8.72968C0.888427 10.5358 0.540062 12.4448 0.505342 14.3743C0.399634 16.862 0.367676 17.6499 0.367676 23.9584C0.367676 30.2669 0.367676 31.0729 0.505342 33.5426C0.542217 35.4749 0.888842 37.3814 1.53538 39.1924C2.10542 40.7366 2.97571 42.1388 4.09066 43.3096C5.20562 44.4804 6.54071 45.3938 8.01063 45.9917C9.72516 46.6974 11.5417 47.0906 13.3821 47.1542C15.7495 47.2653 16.4993 47.2988 22.5025 47.2988C28.5058 47.2988 29.2752 47.2988 31.6229 47.1542C33.4597 47.1162 35.2769 46.7502 36.9968 46.0718C38.4662 45.4726 39.8006 44.5584 40.915 43.3873C42.0295 42.2162 42.8995 40.8139 43.4696 39.2698C44.1162 37.4615 44.4628 35.555 44.4997 33.6201C44.6054 31.1349 44.6373 30.347 44.6373 24.0359C44.6324 17.7274 44.6324 16.9266 44.4948 14.4544ZM22.4853 35.8883C16.2067 35.8883 11.1204 30.5434 11.1204 23.9455C11.1204 17.3477 16.2067 12.0028 22.4853 12.0028C25.4995 12.0028 28.3902 13.261 30.5215 15.5007C32.6528 17.7404 33.8502 20.7781 33.8502 23.9455C33.8502 27.1129 32.6528 30.1506 30.5215 32.3903C28.3902 34.63 25.4995 35.8883 22.4853 35.8883ZM34.3025 14.3458C33.9544 14.3462 33.6096 14.2744 33.288 14.1346C32.9663 13.9947 32.674 13.7896 32.4279 13.5309C32.1818 13.2723 31.9866 12.9652 31.8535 12.6271C31.7204 12.2891 31.6521 11.9268 31.6524 11.561C31.6524 11.1955 31.7209 10.8335 31.8541 10.4958C31.9872 10.1581 32.1823 9.85123 32.4283 9.59276C32.6742 9.33428 32.9662 9.12925 33.2876 8.98936C33.609 8.84947 33.9534 8.77748 34.3013 8.77748C34.6491 8.77748 34.9936 8.84947 35.315 8.98936C35.6363 9.12925 35.9283 9.33428 36.1743 9.59276C36.4203 9.85123 36.6154 10.1581 36.7485 10.4958C36.8816 10.8335 36.9501 11.1955 36.9501 11.561C36.9501 13.1007 35.7652 14.3458 34.3025 14.3458Z" fill="#FFAA18"/>
</svg>
