<svg width="104" height="104" viewBox="0 0 104 104" fill="none" xmlns="http://www.w3.org/2000/svg">
<path d="M38.9998 95.3332C37.8506 95.3332 36.7484 94.8766 35.9357 94.064C35.1231 93.2513 34.6665 92.1491 34.6665 90.9998V77.9998H17.3332C15.0346 77.9998 12.8302 77.0867 11.2049 75.4614C9.5796 73.8361 8.6665 71.6317 8.6665 69.3332V17.3332C8.6665 15.0346 9.5796 12.8302 11.2049 11.2049C12.8302 9.5796 15.0346 8.6665 17.3332 8.6665H86.6665C88.965 8.6665 91.1694 9.5796 92.7948 11.2049C94.4201 12.8302 95.3332 15.0346 95.3332 17.3332V69.3332C95.3332 71.6317 94.4201 73.8361 92.7948 75.4614C91.1694 77.0867 88.965 77.9998 86.6665 77.9998H60.2332L44.1998 94.0765C43.3332 94.8998 42.2498 95.3332 41.1665 95.3332H38.9998ZM69.3332 60.6665V56.3332C69.3332 50.5698 57.7632 47.6665 51.9998 47.6665C46.2365 47.6665 34.6665 50.5698 34.6665 56.3332V60.6665H69.3332ZM51.9998 25.9998C49.7013 25.9998 47.4969 26.9129 45.8716 28.5382C44.2463 30.1636 43.3332 32.368 43.3332 34.6665C43.3332 36.965 44.2463 39.1694 45.8716 40.7948C47.4969 42.4201 49.7013 43.3332 51.9998 43.3332C54.2984 43.3332 56.5028 42.4201 58.1281 40.7948C59.7534 39.1694 60.6665 36.965 60.6665 34.6665C60.6665 32.368 59.7534 30.1636 58.1281 28.5382C56.5028 26.9129 54.2984 25.9998 51.9998 25.9998Z" fill="#222429"/>
</svg>
